<svg id="sun" xmlns="http://www.w3.org/2000/svg" width="69.72" height="69.72" viewBox="0 0 69.72 69.72">
  <rect id="bound" width="69.72" height="69.72" fill="none"/>
  <path id="Oval-8" d="M8.715,17.43A8.715,8.715,0,1,1,17.43,8.715,8.715,8.715,0,0,1,8.715,17.43Z" transform="translate(26.145 26.145)" fill="#9600ff"/>
  <path id="Oval" d="M30.5,61a4.362,4.362,0,0,1-4.358-4.357V52.29a4.357,4.357,0,1,1,8.715,0v4.358A4.362,4.362,0,0,1,30.5,61ZM12.7,52.819A4.357,4.357,0,0,1,9.617,45.38L12.7,42.3a4.357,4.357,0,1,1,6.162,6.162L15.78,51.542A4.329,4.329,0,0,1,12.7,52.819Zm35.763,0a4.329,4.329,0,0,1-3.082-1.276L42.3,48.461A4.357,4.357,0,0,1,48.461,42.3l3.081,3.081a4.357,4.357,0,0,1-3.081,7.438ZM56.648,34.86H52.29a4.357,4.357,0,1,1,0-8.715h4.358a4.357,4.357,0,0,1,0,8.715Zm-47.933,0H4.358a4.357,4.357,0,1,1,0-8.715H8.715a4.357,4.357,0,1,1,0,8.715ZM45.38,20.138A4.357,4.357,0,0,1,42.3,12.7L45.38,9.617a4.357,4.357,0,0,1,6.162,6.162l-3.081,3.082A4.329,4.329,0,0,1,45.38,20.138Zm-29.6,0A4.325,4.325,0,0,1,12.7,18.861L9.617,15.78A4.357,4.357,0,0,1,15.78,9.617L18.861,12.7a4.357,4.357,0,0,1-3.082,7.439ZM30.5,13.073a4.363,4.363,0,0,1-4.358-4.358V4.358a4.357,4.357,0,1,1,8.715,0V8.715A4.362,4.362,0,0,1,30.5,13.073Z" transform="translate(4.358 4.358)" fill="#bf64ff" opacity="0.3"/>
</svg>
