<svg xmlns="http://www.w3.org/2000/svg" width="56" height="56" viewBox="0 0 56 56">
  <g id="Group_1" data-name="Group 1" transform="translate(-14 -14)">
    <path id="Combined-Shape" d="M41.985,7H17.5A10.5,10.5,0,0,0,7,17.5V41.985c-4.544-.224-7-2.887-7-7.621V7.636C0,2.686,2.686,0,7.636,0H34.364C39.1,0,41.761,2.456,41.985,7Z" transform="translate(14 14)" fill="#ff4067" opacity="0.3"/>
    <path id="Rectangle-19-Copy-3" d="M7.636,0H34.364C39.314,0,42,2.686,42,7.636V34.364C42,39.314,39.314,42,34.364,42H7.636C2.686,42,0,39.314,0,34.364V7.636C0,2.686,2.686,0,7.636,0Z" transform="translate(28 28)" fill="#ff4067"/>
  </g>
</svg>
