<svg id="flower-1" xmlns="http://www.w3.org/2000/svg" width="48" height="48" viewBox="0 0 48 48">
  <path id="bound" d="M0,0H48V48H0Z" fill="none"/>
  <path id="Path-36-Copy-2" d="M-6.115,0q12.229,20.488,0,30Q-17.844,20.488-6.115,0Z" transform="translate(15.562 1.015) rotate(-30)" fill="#463eff" opacity="0.3"/>
  <path id="Path-36-Copy-3" d="M6.115,0q-12.229,20.488,0,30Q17.844,20.488,6.115,0Z" transform="translate(32.188 1.015) rotate(30)" fill="#463eff" opacity="0.3"/>
  <path id="Path-36" d="M6.115,0q-12.229,20.488,0,30Q17.844,20.488,6.115,0Z" transform="translate(17.885 2)" fill="#463eff" opacity="0.3"/>
  <path id="Rectangle-71" d="M2,0H24.624A2,2,0,0,1,26.54,2.575L22.168,17.149A4,4,0,0,1,18.336,20H8.289a4,4,0,0,1-3.831-2.851L.085,2.575A2,2,0,0,1,2,0Z" transform="translate(10.688 26)" fill="#463eff"/>
</svg>
