<svg id="expand-arrows" xmlns="http://www.w3.org/2000/svg" width="68.04" height="68.04" viewBox="0 0 68.04 68.04">
  <path id="Bound" d="M0,0H68.04V68.04H0Z" fill="none"/>
  <path id="Combined-Shape" d="M15.349,22.4.83,7.876A2.835,2.835,0,1,1,4.84,3.867L19.359,18.386,36.914.83A2.835,2.835,0,1,1,40.923,4.84L23.368,22.4,40.923,39.95a2.835,2.835,0,0,1-4.009,4.009L19.359,26.4,4.84,40.923A2.835,2.835,0,0,1,.83,36.914Z" transform="translate(14.661 11.625)" fill="#8580ff" opacity="0.3"/>
  <path id="Combined-Shape-2" data-name="Combined-Shape" d="M45.36,45.36H31.185a2.513,2.513,0,0,1-2.835-2.835,2.513,2.513,0,0,1,2.835-2.835h8.5v-8.5c.322-1.881,1.276-2.835,2.835-2.835s2.513.954,2.835,2.835V45.359Zm-31.185,0H0V31.185A2.513,2.513,0,0,1,2.835,28.35,2.513,2.513,0,0,1,5.67,31.185v8.5h8.505c1.881.322,2.835,1.276,2.835,2.835s-.954,2.513-2.835,2.835Zm28.35-28.35a2.513,2.513,0,0,1-2.835-2.835V5.67h-8.5C29.3,5.348,28.35,4.394,28.35,2.835S29.3.322,31.185,0H45.36V14.175A2.513,2.513,0,0,1,42.525,17.01Zm-39.69,0C1.276,17.01.322,16.056,0,14.175V0H14.175A2.513,2.513,0,0,1,17.01,2.835,2.513,2.513,0,0,1,14.175,5.67H5.67v8.505C5.348,16.056,4.394,17.01,2.835,17.01Z" transform="translate(11.34 11.34)" fill="#8580ff"/>
</svg>
